<svg width="1920" height="463" viewBox="0 0 1920 463" fill="none" xmlns="http://www.w3.org/2000/svg">
<g style="mix-blend-mode:multiply">
<path d="M-1.82857 -11.8971L-16.9871 166.15L968.366 249.901L983.528 71.8461L-1.82571 -11.9046L-1.82857 -11.8971ZM4.22774 159.818L-6.45178 158.907L-5.70215 150.132L4.97737 151.043L4.22774 159.818ZM17.2657 6.69808L6.58618 5.78756L7.33581 -2.98719L18.0153 -2.07658L17.2657 6.69808ZM30.7528 162.079L20.0733 161.169L20.8229 152.394L31.5024 153.304L30.7528 162.079ZM43.7908 8.95957L33.1112 8.04895L33.8608 -0.725712L44.5404 0.184823L43.7908 8.95957ZM57.2777 164.341L46.5983 163.43L47.348 154.655L58.0275 155.566L57.2777 164.341ZM70.3157 11.2209L59.6363 10.3104L60.3859 1.5357L71.0654 2.44632L70.3157 11.2209ZM83.8028 166.602L73.1232 165.692L73.87 156.924L84.5496 157.835L83.8 166.61L83.8028 166.602ZM96.8408 13.4824L86.1612 12.5718L86.9108 3.79715L97.5904 4.70769L96.8408 13.4824ZM110.328 168.864L99.6483 167.953L100.398 159.178L111.07 160.086L110.32 168.861L110.328 168.864ZM123.366 15.7438L112.686 14.8333L113.436 6.05856L124.115 6.96917L123.366 15.7438ZM136.853 171.125L126.173 170.214L126.923 161.44L137.603 162.35L136.853 171.125ZM149.891 18.0053L139.211 17.0947L139.961 8.32006L150.64 9.23058L149.891 18.0053ZM163.381 173.379L152.701 172.468L153.451 163.694L164.13 164.604L163.381 173.379ZM176.419 20.2593L165.739 19.3487L166.489 10.5739L177.168 11.4845L176.419 20.2593ZM189.906 175.64L179.226 174.73L179.976 165.955L190.655 166.866L189.906 175.64ZM202.944 22.5207L192.264 21.6101L193.014 12.8354L203.693 13.7459L202.944 22.5207ZM216.434 177.894L205.754 176.984L206.504 168.209L217.183 169.12L216.434 177.894ZM229.472 24.7746L218.792 23.864L219.542 15.0893L230.221 15.9999L229.472 24.7746ZM242.961 180.148L232.282 179.238L233.032 170.463L243.711 171.373L242.961 180.148ZM255.999 27.0285L245.32 26.118L246.07 17.3432L256.749 18.2538L255.999 27.0285ZM269.486 182.41L258.807 181.499L259.557 172.724L270.236 173.635L269.486 182.41ZM282.524 29.29L271.845 28.3794L272.595 19.6046L283.274 20.5152L282.524 29.29ZM296.012 184.671L285.332 183.761L286.082 174.986L296.761 175.896L296.012 184.671ZM309.049 31.5514L298.37 30.6409L299.12 21.8661L309.799 22.7767L309.049 31.5514ZM322.536 186.932L311.857 186.022L312.607 177.247L323.286 178.158L322.536 186.932ZM335.574 33.8129L324.895 32.9022L325.645 24.1276L336.324 25.0381L335.574 33.8129ZM349.064 189.186L338.385 188.276L339.134 179.501L349.814 180.412L349.064 189.186ZM362.102 36.0667L351.423 35.1562L352.172 26.3815L362.852 27.2921L362.102 36.0667ZM375.589 191.448L364.91 190.537L365.659 181.763L376.339 182.673L375.589 191.448ZM388.627 38.3282L377.948 37.4176L378.697 28.6429L389.38 29.546L388.63 38.3207L388.627 38.3282ZM402.114 193.709L391.435 192.799L392.185 184.024L402.864 184.935L402.114 193.709ZM415.152 40.5897L404.473 39.6791L405.223 30.9044L415.902 31.8149L415.152 40.5897ZM428.639 195.971L417.96 195.06L418.709 186.285L429.389 187.196L428.639 195.971ZM441.677 42.8511L430.998 41.9405L431.747 33.1658L442.427 34.0763L441.68 42.8436L441.677 42.8511ZM455.164 198.232L444.485 197.322L445.235 188.547L455.914 189.457L455.164 198.232ZM468.202 45.1126L457.523 44.202L458.27 35.4347L468.949 36.3454L468.2 45.12L468.202 45.1126ZM481.689 200.494L471.01 199.583L471.76 190.808L482.439 191.719L481.689 200.494ZM494.727 47.3739L484.048 46.4634L484.798 37.6887L495.48 38.5917L494.73 47.3664L494.727 47.3739ZM508.214 202.755L497.535 201.844L498.285 193.07L508.964 193.98L508.214 202.755ZM521.252 49.6354L510.573 48.7248L511.323 39.9501L522.002 40.8607L521.252 49.6354ZM534.74 205.016L524.06 204.106L524.81 195.331L535.489 196.242L534.74 205.016ZM547.777 51.8968L537.098 50.9863L537.848 42.2116L548.527 43.1221L547.777 51.8968ZM561.267 207.27L550.588 206.36L551.337 197.585L562.017 198.496L561.267 207.27ZM574.305 54.1508L563.626 53.2402L564.375 44.4654L575.048 45.3732L574.298 54.148L574.305 54.1508ZM587.792 209.532L577.113 208.621L577.862 199.847L588.535 200.754L587.785 209.529L587.792 209.532ZM600.833 56.4047L590.154 55.4941L590.903 46.7194L601.583 47.63L600.836 56.3972L600.833 56.4047ZM614.32 211.786L603.641 210.875L604.39 202.1L615.07 203.011L614.32 211.786ZM627.358 58.6661L616.679 57.7556L617.425 48.9883L628.105 49.8989L627.355 58.6737L627.358 58.6661ZM640.845 214.047L630.166 213.137L630.915 204.362L641.595 205.273L640.845 214.047ZM653.883 60.9275L643.204 60.017L643.953 51.2423L654.633 52.1529L653.883 60.9275ZM667.37 216.309L656.698 215.401L657.448 206.626L668.127 207.537L667.378 216.311L667.37 216.309ZM680.408 63.189L669.729 62.2784L670.478 53.5038L681.15 54.4114L680.401 63.1862L680.408 63.189ZM693.895 218.57L683.216 217.659L683.966 208.885L694.645 209.795L693.895 218.57ZM706.933 65.4504L696.254 64.5399L697.003 55.7652L707.683 56.6758L706.933 65.4504ZM720.42 220.832L709.741 219.921L710.49 211.146L721.17 212.057L720.42 220.832ZM733.458 67.7119L722.779 66.8013L723.528 58.0266L734.208 58.9372L733.458 67.7119ZM746.948 223.086L736.269 222.175L737.018 213.4L747.698 214.311L746.948 223.086ZM759.986 69.9659L749.307 69.0552L750.056 60.2805L760.736 61.1911L759.986 69.9659ZM773.473 225.347L762.794 224.436L763.543 215.662L774.223 216.572L773.473 225.347ZM786.511 72.2272L775.832 71.3166L776.581 62.542L787.261 63.4525L786.511 72.2272ZM799.998 227.608L789.319 226.698L790.068 217.923L800.748 218.834L799.998 227.608ZM813.036 74.4887L802.357 73.5781L803.106 64.8034L813.786 65.714L813.036 74.4887ZM826.523 229.87L815.844 228.959L816.593 220.185L827.273 221.095L826.523 229.87ZM839.561 76.7501L828.882 75.8395L829.631 67.0649L840.311 67.9754L839.561 76.7501ZM853.048 232.131L842.369 231.221L843.118 222.446L853.798 223.356L853.048 232.131ZM866.086 79.0116L855.407 78.101L856.156 69.3263L866.836 70.2369L866.086 79.0116ZM879.576 234.385L868.896 233.475L869.646 224.7L880.326 225.61L879.576 234.385ZM892.614 81.2655L881.942 80.3578L882.691 71.583L893.364 72.4908L892.614 81.2655ZM906.104 236.639L895.424 235.728L896.174 226.954L906.854 227.864L906.104 236.639ZM919.142 83.5195L908.462 82.6088L909.212 73.8341L919.892 74.7447L919.142 83.5195ZM932.629 238.9L921.949 237.99L922.699 229.215L933.379 230.126L932.629 238.9ZM945.667 85.7808L934.987 84.8703L935.734 76.1031L946.406 77.0108L945.656 85.7855L945.667 85.7808ZM959.154 241.162L948.474 240.251L949.224 231.477L959.903 232.387L959.154 241.162ZM972.192 88.0423L961.512 87.1317L962.262 78.357L972.942 79.2675L972.195 88.0348L972.192 88.0423Z" fill="#302E3B"/>
<path d="M145.405 146.434C145.06 150.493 141.508 153.503 137.475 153.162L2.37003 141.678C-1.66261 141.337 -4.64848 137.765 -4.30423 133.706L5.18842 22.2141C5.53267 18.155 9.08528 15.1453 13.1179 15.4867L148.223 26.9702C152.256 27.3116 155.241 30.8833 154.897 34.9424L145.405 146.434ZM318.087 48.8121C318.431 44.7529 315.445 41.1811 311.412 40.8397L176.307 29.3563C172.275 29.0149 168.722 32.0246 168.378 36.0837L158.885 147.576C158.541 151.635 161.527 155.206 165.56 155.548L300.665 167.031C304.697 167.373 308.25 164.363 308.594 160.304L318.087 48.8121ZM481.276 62.6817C481.62 58.6225 478.635 55.0507 474.602 54.7093L339.497 43.2258C335.464 42.8844 331.912 45.8942 331.567 49.9533L322.075 161.445C321.731 165.504 324.716 169.076 328.749 169.417L463.854 180.901C467.887 181.242 471.439 178.233 471.784 174.174L481.276 62.6817ZM644.466 76.5513C644.81 72.4922 641.824 68.9203 637.792 68.579L502.686 57.0954C498.654 56.754 495.101 59.7637 494.757 63.8229L485.264 175.315C484.92 179.374 487.906 182.946 491.939 183.287L627.044 194.771C631.076 195.112 634.629 192.102 634.973 188.043L644.466 76.5513ZM807.655 90.4208C808 86.3616 805.014 82.79 800.981 82.4486L665.876 70.965C661.843 70.6236 658.291 73.6333 657.946 77.6924L648.454 189.184C648.11 193.243 651.096 196.815 655.128 197.157L790.233 208.64C794.266 208.982 797.818 205.972 798.163 201.913L807.655 90.4208ZM970.845 104.29C971.189 100.231 968.203 96.6594 964.17 96.318L829.066 84.8346C825.033 84.4933 821.48 87.5029 821.136 91.5621L811.643 203.054C811.299 207.113 814.285 210.685 818.318 211.026L953.423 222.51C957.455 222.851 961.008 219.841 961.352 215.782L970.845 104.29Z" fill="white"/>
<path d="M145.405 146.434C145.06 150.493 141.508 153.503 137.475 153.162L2.37003 141.678C-1.66261 141.337 -4.64848 137.765 -4.30423 133.706L5.18842 22.2141C5.53267 18.155 9.08528 15.1453 13.1179 15.4867L148.223 26.9702C152.256 27.3116 155.241 30.8833 154.897 34.9424L145.405 146.434ZM318.087 48.8121C318.431 44.7529 315.445 41.1811 311.412 40.8397L176.307 29.3563C172.275 29.0149 168.722 32.0246 168.378 36.0837L158.885 147.576C158.541 151.635 161.527 155.206 165.56 155.548L300.665 167.031C304.697 167.373 308.25 164.363 308.594 160.304L318.087 48.8121ZM481.276 62.6817C481.62 58.6225 478.635 55.0507 474.602 54.7093L339.497 43.2258C335.464 42.8844 331.912 45.8942 331.567 49.9533L322.075 161.445C321.731 165.504 324.716 169.076 328.749 169.417L463.854 180.901C467.887 181.242 471.439 178.233 471.784 174.174L481.276 62.6817ZM644.466 76.5513C644.81 72.4922 641.824 68.9203 637.792 68.579L502.686 57.0954C498.654 56.754 495.101 59.7637 494.757 63.8229L485.264 175.315C484.92 179.374 487.906 182.946 491.939 183.287L627.044 194.771C631.076 195.112 634.629 192.102 634.973 188.043L644.466 76.5513ZM807.655 90.4208C808 86.3616 805.014 82.79 800.981 82.4486L665.876 70.965C661.843 70.6236 658.291 73.6333 657.946 77.6924L648.454 189.184C648.11 193.243 651.096 196.815 655.128 197.157L790.233 208.64C794.266 208.982 797.818 205.972 798.163 201.913L807.655 90.4208ZM970.845 104.29C971.189 100.231 968.203 96.6594 964.17 96.318L829.066 84.8346C825.033 84.4933 821.48 87.5029 821.136 91.5621L811.643 203.054C811.299 207.113 814.285 210.685 818.318 211.026L953.423 222.51C957.455 222.851 961.008 219.841 961.352 215.782L970.845 104.29Z" fill="url(#paint0_linear_4_4274)"/>
</g>
<g style="mix-blend-mode:multiply">
<path d="M981.868 71.3468L968.087 249.506L1954.06 325.635L1967.84 147.469L981.871 71.3393L981.868 71.3468ZM989.252 243.01L978.566 242.182L979.248 233.401L989.934 234.229L989.252 243.01ZM1001.11 89.7938L990.42 88.9658L991.101 80.1856L1001.79 81.0136L1001.11 89.7938ZM1015.79 245.066L1005.11 244.238L1005.79 235.458L1016.48 236.286L1015.79 245.066ZM1027.65 91.8501L1016.96 91.0221L1017.64 82.2419L1028.33 83.0698L1027.65 91.8501ZM1042.34 247.122L1031.65 246.294L1032.33 237.514L1043.02 238.342L1042.34 247.122ZM1054.19 93.9063L1043.5 93.0784L1044.18 84.2981L1054.87 85.1261L1054.19 93.9063ZM1068.88 249.178L1058.19 248.351L1058.87 239.578L1069.56 240.406L1068.87 249.186L1068.88 249.178ZM1080.73 95.9626L1070.04 95.1346L1070.73 86.3544L1081.41 87.1823L1080.73 95.9626ZM1095.42 251.235L1084.73 250.407L1085.41 241.627L1096.09 242.452L1095.41 251.232L1095.42 251.235ZM1107.27 98.0189L1096.59 97.1909L1097.27 88.4107L1107.95 89.2387L1107.27 98.0189ZM1121.96 253.291L1111.27 252.463L1111.96 243.683L1122.64 244.511L1121.96 253.291ZM1133.81 100.075L1123.13 99.2472L1123.81 90.467L1134.5 91.2949L1133.81 100.075ZM1148.51 255.34L1137.82 254.512L1138.5 245.732L1149.19 246.56L1148.51 255.34ZM1160.36 102.124L1149.67 101.296L1150.35 92.5157L1161.04 93.3437L1160.36 102.124ZM1175.05 257.396L1164.36 256.568L1165.04 247.788L1175.73 248.616L1175.05 257.396ZM1186.9 104.18L1176.21 103.352L1176.9 94.572L1187.58 95.3999L1186.9 104.18ZM1201.59 259.445L1190.91 258.617L1191.59 249.837L1202.27 250.665L1201.59 259.445ZM1213.45 106.229L1202.76 105.401L1203.44 96.6207L1214.13 97.4487L1213.45 106.229ZM1228.14 261.494L1217.45 260.666L1218.13 251.885L1228.82 252.713L1228.14 261.494ZM1239.99 108.278L1229.3 107.45L1229.99 98.6695L1240.67 99.4974L1239.99 108.278ZM1254.68 263.55L1243.99 262.722L1244.67 253.942L1255.36 254.77L1254.68 263.55ZM1266.53 110.334L1255.85 109.506L1256.53 100.726L1267.21 101.554L1266.53 110.334ZM1281.22 265.606L1270.53 264.778L1271.22 255.998L1281.9 256.826L1281.22 265.606ZM1293.07 112.39L1282.39 111.562L1283.07 102.782L1293.75 103.61L1293.07 112.39ZM1307.76 267.662L1297.07 266.834L1297.76 258.054L1308.44 258.882L1307.76 267.662ZM1319.61 114.447L1308.93 113.618L1309.61 104.838L1320.3 105.666L1319.61 114.447ZM1334.31 269.711L1323.62 268.883L1324.3 260.103L1334.99 260.931L1334.31 269.711ZM1346.16 116.495L1335.47 115.667L1336.15 106.887L1346.84 107.715L1346.16 116.495ZM1360.85 271.767L1350.16 270.939L1350.84 262.159L1361.53 262.987L1360.85 271.767ZM1372.7 118.552L1362.01 117.724L1362.7 108.943L1373.39 109.764L1372.7 118.544L1372.7 118.552ZM1387.39 273.824L1376.7 272.996L1377.38 264.215L1388.07 265.043L1387.39 273.824ZM1399.24 120.608L1388.56 119.78L1389.24 111L1399.92 111.828L1399.24 120.608ZM1413.93 275.88L1403.24 275.052L1403.93 266.272L1414.61 267.1L1413.93 275.88ZM1425.78 122.664L1415.1 121.836L1415.78 113.056L1426.47 113.884L1425.79 122.657L1425.78 122.664ZM1440.47 277.936L1429.79 277.108L1430.47 268.328L1441.15 269.156L1440.47 277.936ZM1452.33 124.72L1441.64 123.892L1442.32 115.12L1453.01 115.948L1452.32 124.728L1452.33 124.72ZM1467.01 279.992L1456.33 279.165L1457.01 270.384L1467.7 271.212L1467.01 279.992ZM1478.87 126.777L1468.18 125.949L1468.86 117.168L1479.55 117.989L1478.87 126.769L1478.87 126.777ZM1493.56 282.049L1482.87 281.221L1483.55 272.441L1494.24 273.269L1493.56 282.049ZM1505.41 128.833L1494.72 128.005L1495.41 119.225L1506.09 120.053L1505.41 128.833ZM1520.1 284.105L1509.41 283.277L1510.09 274.497L1520.78 275.325L1520.1 284.105ZM1531.95 130.889L1521.26 130.061L1521.95 121.281L1532.63 122.109L1531.95 130.889ZM1546.64 286.154L1535.96 285.326L1536.64 276.546L1547.32 277.374L1546.64 286.154ZM1558.5 132.938L1547.81 132.11L1548.49 123.33L1559.17 124.155L1558.49 132.935L1558.5 132.938ZM1573.18 288.21L1562.5 287.382L1563.18 278.602L1573.86 279.427L1573.18 288.207L1573.18 288.21ZM1585.04 134.987L1574.35 134.159L1575.04 125.378L1585.72 126.206L1585.04 134.979L1585.04 134.987ZM1599.73 290.259L1589.04 289.431L1589.72 280.651L1600.41 281.478L1599.73 290.259ZM1611.58 137.043L1600.9 136.215L1601.57 127.442L1612.26 128.27L1611.58 137.05L1611.58 137.043ZM1626.27 292.315L1615.58 291.487L1616.27 282.707L1626.95 283.535L1626.27 292.315ZM1638.12 139.099L1627.44 138.271L1628.12 129.491L1638.81 130.319L1638.12 139.099ZM1652.81 294.371L1642.13 293.546L1642.81 284.766L1653.5 285.594L1652.82 294.374L1652.81 294.371ZM1664.67 141.155L1653.98 140.328L1654.66 131.547L1665.34 132.372L1664.66 141.153L1664.67 141.155ZM1679.35 296.428L1668.67 295.6L1669.35 286.819L1680.04 287.647L1679.35 296.428ZM1691.21 143.212L1680.52 142.384L1681.2 133.604L1691.89 134.432L1691.21 143.212ZM1705.9 298.484L1695.21 297.656L1695.89 288.876L1706.58 289.704L1705.9 298.484ZM1717.75 145.268L1707.06 144.44L1707.74 135.66L1718.43 136.488L1717.75 145.268ZM1732.44 300.533L1721.75 299.705L1722.44 290.924L1733.12 291.752L1732.44 300.533ZM1744.29 147.317L1733.61 146.489L1734.29 137.709L1744.98 138.537L1744.29 147.317ZM1758.98 302.589L1748.3 301.761L1748.98 292.981L1759.66 293.809L1758.98 302.589ZM1770.83 149.373L1760.15 148.545L1760.83 139.765L1771.52 140.593L1770.83 149.373ZM1785.52 304.645L1774.84 303.817L1775.52 295.037L1786.2 295.865L1785.52 304.645ZM1797.38 151.429L1786.69 150.601L1787.37 141.821L1798.06 142.649L1797.38 151.429ZM1812.06 306.701L1801.38 305.874L1802.06 297.093L1812.75 297.921L1812.06 306.701ZM1823.92 153.486L1813.23 152.658L1813.91 143.877L1824.6 144.705L1823.92 153.486ZM1838.61 308.758L1827.92 307.93L1828.6 299.149L1839.29 299.977L1838.61 308.758ZM1850.46 155.542L1839.77 154.714L1840.46 145.934L1851.14 146.762L1850.46 155.542ZM1865.15 310.806L1854.46 309.979L1855.15 301.198L1865.83 302.026L1865.15 310.806ZM1877 157.591L1866.33 156.765L1867.01 147.985L1877.69 148.81L1877 157.591ZM1891.7 312.855L1881.01 312.027L1881.69 303.247L1892.38 304.075L1891.7 312.855ZM1903.55 159.639L1892.86 158.811L1893.54 150.031L1904.23 150.859L1903.55 159.639ZM1918.24 314.911L1907.55 314.084L1908.23 305.303L1918.92 306.131L1918.24 314.911ZM1930.09 161.696L1919.4 160.868L1920.08 152.095L1930.76 152.92L1930.08 161.7L1930.09 161.696ZM1944.78 316.968L1934.09 316.14L1934.77 307.36L1945.46 308.187L1944.78 316.968ZM1956.63 163.752L1945.95 162.924L1946.63 154.144L1957.31 154.972L1956.64 163.744L1956.63 163.752Z" fill="#302E3B"/>
<path d="M1130.32 228.535C1130.01 232.597 1126.48 235.634 1122.44 235.324L987.254 224.885C983.219 224.575 980.206 221.026 980.519 216.965L989.149 105.403C989.462 101.341 992.991 98.304 997.026 98.6142L1132.22 109.053C1136.25 109.363 1139.26 112.911 1138.95 116.973L1130.32 228.535ZM1302.24 129.58C1302.56 125.519 1299.54 121.97 1295.51 121.66L1160.32 111.222C1156.28 110.911 1152.75 113.948 1152.44 118.01L1143.81 229.572C1143.5 233.634 1146.51 237.182 1150.55 237.492L1285.74 247.931C1289.77 248.241 1293.3 245.204 1293.61 241.142L1302.24 129.58ZM1465.54 142.188C1465.85 138.126 1462.83 134.578 1458.8 134.267L1323.61 123.829C1319.57 123.519 1316.05 126.556 1315.73 130.618L1307.1 242.179C1306.79 246.241 1309.8 249.79 1313.84 250.1L1449.03 260.538C1453.06 260.849 1456.59 257.811 1456.91 253.75L1465.54 142.188ZM1628.83 154.795C1629.14 150.734 1626.13 147.185 1622.09 146.875L1486.9 136.436C1482.87 136.126 1479.34 139.163 1479.02 143.225L1470.39 254.787C1470.08 258.848 1473.09 262.397 1477.13 262.707L1612.32 273.146C1616.35 273.456 1619.88 270.419 1620.2 266.357L1628.83 154.795ZM1792.12 167.403C1792.43 163.341 1789.42 159.792 1785.38 159.482L1650.19 149.044C1646.16 148.733 1642.63 151.77 1642.32 155.832L1633.69 267.394C1633.37 271.456 1636.39 275.004 1640.42 275.314L1775.61 285.753C1779.65 286.063 1783.18 283.026 1783.49 278.964L1792.12 167.403ZM1955.41 180.01C1955.72 175.948 1952.71 172.4 1948.68 172.089L1813.49 161.651C1809.45 161.341 1805.92 164.378 1805.61 168.44L1796.98 280.001C1796.67 284.063 1799.68 287.612 1803.71 287.922L1938.9 298.36C1942.94 298.671 1946.47 295.634 1946.78 291.572L1955.41 180.01Z" fill="white"/>
<path d="M1130.32 228.535C1130.01 232.597 1126.48 235.634 1122.44 235.324L987.254 224.885C983.219 224.575 980.206 221.026 980.519 216.965L989.149 105.403C989.462 101.341 992.991 98.304 997.026 98.6142L1132.22 109.053C1136.25 109.363 1139.26 112.911 1138.95 116.973L1130.32 228.535ZM1302.24 129.58C1302.56 125.519 1299.54 121.97 1295.51 121.66L1160.32 111.222C1156.28 110.911 1152.75 113.948 1152.44 118.01L1143.81 229.572C1143.5 233.634 1146.51 237.182 1150.55 237.492L1285.74 247.931C1289.77 248.241 1293.3 245.204 1293.61 241.142L1302.24 129.58ZM1465.54 142.188C1465.85 138.126 1462.83 134.578 1458.8 134.267L1323.61 123.829C1319.57 123.519 1316.05 126.556 1315.73 130.618L1307.1 242.179C1306.79 246.241 1309.8 249.79 1313.84 250.1L1449.03 260.538C1453.06 260.849 1456.59 257.811 1456.91 253.75L1465.54 142.188ZM1628.83 154.795C1629.14 150.734 1626.13 147.185 1622.09 146.875L1486.9 136.436C1482.87 136.126 1479.34 139.163 1479.02 143.225L1470.39 254.787C1470.08 258.848 1473.09 262.397 1477.13 262.707L1612.32 273.146C1616.35 273.456 1619.88 270.419 1620.2 266.357L1628.83 154.795ZM1792.12 167.403C1792.43 163.341 1789.42 159.792 1785.38 159.482L1650.19 149.044C1646.16 148.733 1642.63 151.77 1642.32 155.832L1633.69 267.394C1633.37 271.456 1636.39 275.004 1640.42 275.314L1775.61 285.753C1779.65 286.063 1783.18 283.026 1783.49 278.964L1792.12 167.403ZM1955.41 180.01C1955.72 175.948 1952.71 172.4 1948.68 172.089L1813.49 161.651C1809.45 161.341 1805.92 164.378 1805.61 168.44L1796.98 280.001C1796.67 284.063 1799.68 287.612 1803.71 287.922L1938.9 298.36C1942.94 298.671 1946.47 295.634 1946.78 291.572L1955.41 180.01Z" fill="url(#paint1_linear_4_4274)"/>
</g>
<defs>
<linearGradient id="paint0_linear_4_4274" x1="491.69" y1="26.8822" x2="474.848" y2="211.114" gradientUnits="userSpaceOnUse">
<stop/>
<stop offset="1" stop-opacity="0"/>
</linearGradient>
<linearGradient id="paint1_linear_4_4274" x1="1475.67" y1="106.309" x2="1460.26" y2="290.665" gradientUnits="userSpaceOnUse">
<stop/>
<stop offset="1" stop-opacity="0"/>
</linearGradient>
</defs>
</svg>
