<svg width="2475" height="982" viewBox="0 0 2475 982" fill="none" xmlns="http://www.w3.org/2000/svg">
<g style="mix-blend-mode:multiply">
<path d="M82.221 124.399L133.493 975.771L2392.17 857.526L2340.9 6.13605L82.2231 124.38L82.221 124.399ZM135.63 162.104L111.149 163.379L107.847 142.46L132.328 141.186L135.63 162.104ZM196.436 158.937L171.955 160.212L168.652 139.294L193.134 138.019L196.436 158.937ZM257.242 155.77L232.76 157.045L229.458 136.127L253.94 134.852L257.242 155.77ZM318.048 152.604L293.566 153.878L290.264 132.96L314.746 131.685L318.048 152.604ZM378.854 149.437L354.372 150.712L351.07 129.793L375.552 128.519L378.854 149.437ZM439.659 146.27L415.178 147.545L411.876 126.627L436.357 125.352L439.659 146.27ZM500.467 143.085L475.986 144.36L472.684 123.441L497.165 122.167L500.467 143.085ZM561.273 139.918L536.791 141.193L533.489 120.275L557.971 119L561.273 139.918ZM622.081 136.733L597.599 138.008L594.297 117.089L618.779 115.814L622.081 136.733ZM682.889 133.547L658.407 134.822L655.105 113.904L679.587 112.629L682.889 133.547ZM743.695 130.381L719.213 131.655L715.911 110.737L740.393 109.462L743.695 130.381ZM804.5 127.214L780.019 128.489L776.717 107.571L801.198 106.296L804.5 127.214ZM865.306 124.047L840.824 125.322L837.523 104.404L862.004 103.129L865.306 124.047ZM926.114 120.862L901.632 122.137L898.33 101.218L922.812 99.9437L926.114 120.862ZM986.92 117.695L962.438 118.97L959.136 98.0518L983.62 96.7582L986.922 117.677L986.92 117.695ZM1047.73 114.529L1023.24 115.803L1019.94 94.885L1044.42 93.6102L1047.73 114.529ZM1108.53 111.362L1084.05 112.636L1080.75 91.7183L1105.23 90.4434L1108.53 111.343L1108.53 111.362ZM1169.34 108.195L1144.86 109.47L1141.55 88.5701L1166.03 87.2954L1169.34 108.214L1169.34 108.195ZM1230.14 105.028L1205.66 106.303L1202.36 85.3849L1226.84 84.0913L1230.15 105.01L1230.14 105.028ZM1290.95 101.862L1266.47 103.136L1263.17 82.218L1287.65 80.9433L1290.95 101.862ZM1351.76 98.6948L1327.27 99.9697L1323.97 79.0515L1348.45 77.7765L1351.76 98.6948ZM1412.56 95.5096L1388.08 96.7843L1384.78 75.8659L1409.24 74.5869L1412.55 95.5053L1412.56 95.5096ZM1473.37 92.3241L1448.89 93.599L1445.59 72.6807L1470.07 71.406L1473.37 92.3055L1473.37 92.3241ZM1534.18 89.1574L1509.7 90.4322L1506.39 69.5325L1530.87 68.2577L1534.18 89.1761L1534.18 89.1574ZM1594.98 85.9906L1570.5 87.2656L1567.2 66.3473L1591.68 65.0725L1594.98 85.9906ZM1655.79 82.824L1631.31 84.0988L1628.01 63.1807L1652.47 61.9013L1655.77 82.8197L1655.79 82.824ZM1716.59 79.6572L1692.11 80.9321L1688.81 60.0139L1713.29 58.7391L1716.59 79.6572ZM1777.4 76.4906L1752.92 77.7653L1749.62 56.8472L1774.1 55.5723L1777.4 76.4906ZM1838.21 73.3054L1813.73 74.5801L1810.42 53.6617L1834.91 52.387L1838.21 73.3054ZM1899.01 70.1384L1874.53 71.4132L1871.23 50.4951L1895.71 49.2201L1899.01 70.1384ZM1959.82 66.9719L1935.34 68.2466L1932.04 47.3283L1956.52 46.0535L1959.82 66.9719ZM2020.63 63.805L1996.14 65.0798L1992.84 44.1617L2017.32 42.8867L2020.63 63.805ZM2081.43 60.6384L2056.95 61.9132L2053.65 40.9948L2078.13 39.7201L2081.43 60.6384ZM2142.24 57.453L2117.78 58.7323L2114.47 37.8139L2138.94 36.5346L2142.24 57.453ZM2203.05 54.2678L2178.57 55.5424L2175.26 34.6241L2199.75 33.3494L2203.05 54.2678ZM2263.85 51.1008L2239.37 52.3758L2236.07 31.4761L2260.53 30.1969L2263.83 51.1151L2263.85 51.1008ZM2324.66 47.9343L2300.18 49.209L2296.88 28.2907L2321.36 27.0159L2324.66 47.9156L2324.66 47.9343Z" fill="#302E3B"/>
<path d="M2363.36 845.328L157.016 974.539L119.717 217.792C118.184 208.116 124.446 199.885 133.689 199.398L2314.9 88.291C2324.15 87.8039 2325.51 87.3955 2327.05 97.0714L2363.36 845.328Z" fill="white"/>
<path d="M2363.36 845.328L157.016 974.539L119.717 217.792C118.184 208.116 124.446 199.885 133.689 199.398L2314.9 88.291C2324.15 87.8039 2325.51 87.3955 2327.05 97.0714L2363.36 845.328Z" fill="url(#paint0_linear_4_4610)"/>
</g>
<defs>
<linearGradient id="paint0_linear_4_4610" x1="1171.58" y1="59.5428" x2="1211.18" y2="926.549" gradientUnits="userSpaceOnUse">
<stop/>
<stop offset="1" stop-opacity="0.46"/>
</linearGradient>
</defs>
</svg>
