<svg width="999" height="244" viewBox="0 0 999 244" fill="none" xmlns="http://www.w3.org/2000/svg">
<g style="mix-blend-mode:multiply">
<path d="M0.375436 65.1847L12.1156 243.49L998.876 178.379L987.137 0.0661821L0.377133 65.1769L0.375436 65.1847ZM32.1394 234.045L21.4442 234.748L20.8682 225.96L31.5634 225.257L32.1394 234.045ZM22.0447 80.7029L11.3495 81.4058L10.7734 72.618L21.4687 71.9152L22.0447 80.7029ZM58.7034 232.299L48.0082 233.002L47.4321 224.214L58.1274 223.511L58.7034 232.299ZM48.6087 78.9571L37.9135 79.6599L37.3374 70.8721L48.0326 70.1692L48.6087 78.9571ZM85.2672 230.553L74.5721 231.256L73.9961 222.468L84.6913 221.765L85.2672 230.553ZM75.1725 77.2112L64.4774 77.9141L63.9014 69.1262L74.5966 68.4234L75.1725 77.2112ZM111.831 228.807L101.136 229.51L100.558 220.73L111.253 220.027L111.83 228.815L111.831 228.807ZM101.737 75.4653L91.0413 76.1681L90.4652 67.3804L101.16 66.6775L101.737 75.4653ZM138.395 227.061L127.7 227.764L127.124 218.976L137.811 218.272L138.387 227.06L138.395 227.061ZM128.3 73.7194L117.605 74.4223L117.029 65.6345L127.724 64.9316L128.3 73.7194ZM164.959 225.315L154.264 226.018L153.688 217.23L164.383 216.528L164.959 225.315ZM154.864 71.9735L144.169 72.6764L143.593 63.8886L154.288 63.1857L154.864 71.9735ZM191.525 223.562L180.829 224.264L180.254 215.477L190.949 214.774L191.525 223.562ZM181.43 70.2198L170.735 70.9227L170.159 62.1348L180.854 61.432L181.43 70.2198ZM218.089 221.816L207.393 222.519L206.817 213.731L217.513 213.028L218.089 221.816ZM207.994 68.4739L197.299 69.1768L196.723 60.389L207.418 59.6861L207.994 68.4739ZM244.654 220.062L233.959 220.765L233.383 211.977L244.078 211.274L244.654 220.062ZM234.56 66.7202L223.864 67.423L223.288 58.6352L233.984 57.9324L234.56 66.7202ZM271.22 218.308L260.525 219.011L259.949 210.223L270.644 209.52L271.22 218.308ZM261.125 64.9664L250.43 65.6693L249.854 56.8815L260.549 56.1787L261.125 64.9664ZM297.784 216.562L287.089 217.265L286.513 208.477L297.208 207.775L297.784 216.562ZM287.689 63.2206L276.994 63.9234L276.418 55.1355L287.113 54.4327L287.689 63.2206ZM324.348 214.817L313.653 215.519L313.077 206.732L323.772 206.029L324.348 214.817ZM314.253 61.4747L303.558 62.1776L302.982 53.3897L313.677 52.6869L314.253 61.4747ZM350.912 213.071L340.216 213.773L339.64 204.986L350.336 204.283L350.912 213.071ZM340.817 59.7288L330.122 60.4316L329.546 51.6439L340.241 50.941L340.817 59.7288ZM377.477 211.317L366.782 212.02L366.206 203.232L376.901 202.529L377.477 211.317ZM367.383 57.975L356.687 58.6779L356.111 49.8901L366.807 49.1873L367.383 57.975ZM404.041 209.571L393.346 210.274L392.77 201.486L403.465 200.783L404.041 209.571ZM393.947 56.2292L383.251 56.932L382.675 48.1442L393.372 47.4335L393.948 56.2213L393.947 56.2292ZM430.605 207.825L419.91 208.528L419.334 199.74L430.029 199.037L430.605 207.825ZM420.51 54.4833L409.815 55.1862L409.239 46.3983L419.934 45.6955L420.51 54.4833ZM457.169 206.079L446.474 206.782L445.898 197.994L456.593 197.291L457.169 206.079ZM447.074 52.7374L436.379 53.4402L435.803 44.6525L446.498 43.9496L447.076 52.7296L447.074 52.7374ZM483.733 204.333L473.038 205.036L472.462 196.248L483.157 195.546L483.733 204.333ZM473.638 50.9916L462.943 51.6944L462.365 42.9144L473.061 42.2116L473.637 50.9994L473.638 50.9916ZM510.297 202.587L499.602 203.29L499.026 194.503L509.721 193.8L510.297 202.587ZM500.202 49.2456L489.507 49.9485L488.931 41.1607L499.628 40.4499L500.204 49.2378L500.202 49.2456ZM536.861 200.842L526.166 201.544L525.59 192.757L536.285 192.054L536.861 200.842ZM526.766 47.4998L516.071 48.2026L515.495 39.4148L526.19 38.712L526.766 47.4998ZM563.425 199.096L552.73 199.799L552.154 191.011L562.849 190.308L563.425 199.096ZM553.33 45.7539L542.635 46.4568L542.059 37.669L552.754 36.966L553.33 45.7539ZM589.99 197.342L579.295 198.045L578.719 189.257L589.415 188.554L589.99 197.342ZM579.896 44.0002L569.2 44.703L568.624 35.9151L579.312 35.2106L579.888 43.9985L579.896 44.0002ZM616.554 195.596L605.859 196.299L605.283 187.511L615.971 186.807L616.547 195.594L616.554 195.596ZM606.461 42.2464L595.766 42.9493L595.19 34.1614L605.885 33.4586L606.463 42.2385L606.461 42.2464ZM643.12 193.842L632.425 194.545L631.849 185.757L642.544 185.054L643.12 193.842ZM633.025 40.5005L622.33 41.2034L621.752 32.4234L632.448 31.7205L633.024 40.5084L633.025 40.5005ZM669.684 192.097L658.989 192.799L658.413 184.011L669.108 183.309L669.684 192.097ZM659.589 38.7546L648.894 39.4575L648.318 30.6697L659.013 29.9668L659.589 38.7546ZM696.248 190.351L685.561 191.055L684.985 182.267L695.68 181.564L696.256 190.352L696.248 190.351ZM686.153 37.0088L675.458 37.7116L674.882 28.9238L685.569 28.2192L686.145 37.0071L686.153 37.0088ZM722.812 188.605L712.117 189.308L711.541 180.52L722.236 179.817L722.812 188.605ZM712.717 35.2629L702.022 35.9657L701.446 27.1779L712.141 26.4751L712.717 35.2629ZM749.376 186.859L738.681 187.562L738.104 178.774L748.8 178.071L749.376 186.859ZM739.281 33.517L728.586 34.2198L728.01 25.4321L738.705 24.7292L739.281 33.517ZM775.942 185.105L765.246 185.808L764.67 177.02L775.365 176.317L775.942 185.105ZM765.847 31.7633L755.151 32.4661L754.575 23.6783L765.271 22.9755L765.847 31.7633ZM802.505 183.359L791.81 184.062L791.234 175.274L801.929 174.571L802.505 183.359ZM792.41 30.0174L781.715 30.7202L781.139 21.9324L791.835 21.2295L792.41 30.0174ZM829.069 181.613L818.374 182.316L817.798 173.528L828.493 172.825L829.069 181.613ZM818.974 28.2715L808.279 28.9744L807.703 20.1865L818.398 19.4837L818.974 28.2715ZM855.633 179.867L844.938 180.57L844.362 171.782L855.057 171.08L855.633 179.867ZM845.538 26.5256L834.843 27.2284L834.267 18.4407L844.962 17.7378L845.538 26.5256ZM882.197 178.122L871.502 178.824L870.926 170.037L881.621 169.334L882.197 178.122ZM872.102 24.7798L861.407 25.4826L860.831 16.6947L871.526 15.9919L872.102 24.7798ZM908.763 176.368L898.067 177.071L897.491 168.283L908.187 167.58L908.763 176.368ZM898.668 23.026L887.981 23.7306L887.404 14.9427L898.092 14.2381L898.668 23.026ZM935.328 174.614L924.633 175.317L924.057 166.529L934.752 165.826L935.328 174.614ZM925.234 21.2723L914.538 21.9751L913.962 13.1872L924.658 12.4844L925.234 21.2723ZM961.892 172.868L951.197 173.571L950.621 164.783L961.316 164.08L961.892 172.868ZM951.797 19.5263L941.102 20.2293L940.525 11.4493L951.212 10.7447L951.788 19.5325L951.797 19.5263ZM988.456 171.122L977.761 171.825L977.185 163.037L987.88 162.334L988.456 171.122ZM978.361 17.7805L967.666 18.4833L967.09 9.69547L977.785 8.99263L978.363 17.7726L978.361 17.7805Z" fill="#302E3B"/>
<path d="M169.708 199.621C169.977 203.686 166.916 207.194 162.878 207.462L27.5798 216.39C23.5416 216.658 20.0534 213.574 19.7845 209.51L12.4334 97.8561C12.1644 93.7913 15.225 90.2824 19.2632 90.0146L154.561 81.0872C158.599 80.8194 162.087 83.9024 162.356 87.9673L169.708 199.621ZM325.779 77.1832C325.51 73.1183 322.022 70.0352 317.984 70.3031L182.686 79.2305C178.647 79.4983 175.587 83.0072 175.856 87.072L183.207 198.726C183.476 202.79 186.964 205.873 191.002 205.606L326.3 196.678C330.338 196.41 333.399 192.902 333.13 188.837L325.779 77.1832ZM489.201 66.3991C488.932 62.3342 485.444 59.2511 481.406 59.519L346.108 68.4463C342.07 68.7141 339.009 72.2231 339.278 76.2879L346.629 187.941C346.898 192.006 350.387 195.089 354.425 194.821L489.723 185.894C493.761 185.626 496.821 182.117 496.552 178.053L489.201 66.3991ZM652.624 55.615C652.355 51.5502 648.867 48.467 644.828 48.7349L509.53 57.6622C505.492 57.93 502.432 61.4389 502.701 65.5037L510.052 177.157C510.321 181.222 513.809 184.305 517.847 184.037L653.145 175.11C657.183 174.842 660.244 171.333 659.975 167.268L652.624 55.615ZM816.046 44.8308C815.777 40.7659 812.289 37.683 808.251 37.9508L672.953 46.8781C668.915 47.1459 665.854 50.6548 666.123 54.7196L673.474 166.373C673.743 170.438 677.231 173.521 681.27 173.253L816.568 164.326C820.606 164.058 823.666 160.549 823.397 156.484L816.046 44.8308ZM979.469 34.0467C979.2 29.9819 975.711 26.8987 971.673 27.1666L836.375 36.094C832.337 36.3618 829.277 39.8707 829.546 43.9355L836.897 155.589C837.166 159.654 840.654 162.737 844.692 162.469L979.99 153.542C984.028 153.274 987.089 149.765 986.82 145.7L979.469 34.0467Z" fill="white"/>
<path d="M169.708 199.621C169.977 203.686 166.916 207.194 162.878 207.462L27.5798 216.39C23.5416 216.658 20.0534 213.574 19.7845 209.51L12.4334 97.8561C12.1644 93.7913 15.225 90.2824 19.2632 90.0146L154.561 81.0872C158.599 80.8194 162.087 83.9024 162.356 87.9673L169.708 199.621ZM325.779 77.1832C325.51 73.1183 322.022 70.0352 317.984 70.3031L182.686 79.2305C178.647 79.4983 175.587 83.0072 175.856 87.072L183.207 198.726C183.476 202.79 186.964 205.873 191.002 205.606L326.3 196.678C330.338 196.41 333.399 192.902 333.13 188.837L325.779 77.1832ZM489.201 66.3991C488.932 62.3342 485.444 59.2511 481.406 59.519L346.108 68.4463C342.07 68.7141 339.009 72.2231 339.278 76.2879L346.629 187.941C346.898 192.006 350.387 195.089 354.425 194.821L489.723 185.894C493.761 185.626 496.821 182.117 496.552 178.053L489.201 66.3991ZM652.624 55.615C652.355 51.5502 648.867 48.467 644.828 48.7349L509.53 57.6622C505.492 57.93 502.432 61.4389 502.701 65.5037L510.052 177.157C510.321 181.222 513.809 184.305 517.847 184.037L653.145 175.11C657.183 174.842 660.244 171.333 659.975 167.268L652.624 55.615ZM816.046 44.8308C815.777 40.7659 812.289 37.683 808.251 37.9508L672.953 46.8781C668.915 47.1459 665.854 50.6548 666.123 54.7196L673.474 166.373C673.743 170.438 677.231 173.521 681.27 173.253L816.568 164.326C820.606 164.058 823.666 160.549 823.397 156.484L816.046 44.8308ZM979.469 34.0467C979.2 29.9819 975.711 26.8987 971.673 27.1666L836.375 36.094C832.337 36.3618 829.277 39.8707 829.546 43.9355L836.897 155.589C837.166 159.654 840.654 162.737 844.692 162.469L979.99 153.542C984.028 153.274 987.089 149.765 986.82 145.7L979.469 34.0467Z" fill="url(#paint0_linear_111_1114)"/>
</g>
<defs>
<linearGradient id="paint0_linear_111_1114" x1="494.124" y1="29.4419" x2="505.127" y2="214.114" gradientUnits="userSpaceOnUse">
<stop/>
<stop offset="1" stop-opacity="0"/>
</linearGradient>
</defs>
</svg>
